HIERARCHY
ROOT hip
{
  OFFSET 0 0 0
  CHANNELS 6 Xposition Yposition Zposition Zrotation Yrotation Xrotation
  JOINT abdomen
  {
    OFFSET 0 20.6881 -0.73152
    CHANNELS 3 Zrotation Xrotation Yrotation
    JOINT chest
    {
      OFFSET 0 11.7043 -0.48768
      CHANNELS 3 Zrotation Xrotation Yrotation
      JOINT neck
      {
        OFFSET 0 22.1894 -2.19456
        CHANNELS 3 Zrotation Xrotation Yrotation
        JOINT head
        {
          OFFSET -0.24384 7.07133 1.2192
          CHANNELS 3 Zrotation Xrotation Yrotation
          JOINT leftEye
          {
            OFFSET 4.14528 8.04674 8.04672
            CHANNELS 3 Zrotation Xrotation Yrotation
            End Site
            {
              OFFSET 1 0 0
            }
          }
          JOINT rightEye
          {
            OFFSET -3.6576 8.04674 8.04672
            CHANNELS 3 Zrotation Xrotation Yrotation
            End Site
            {
              OFFSET 1 0 0
            }
          }
        }
      }
      JOINT rCollar
      {
        OFFSET -2.68224 19.2634 -4.8768
        CHANNELS 3 Zrotation Xrotation Yrotation
        JOINT rShldr
        {
          OFFSET -8.77824 -1.95073 1.46304
          CHANNELS 3 Zrotation Xrotation Yrotation
          JOINT rForeArm
          {
            OFFSET -28.1742 -1.7115 0.48768
            CHANNELS 3 Zrotation Xrotation Yrotation
            JOINT rHand
            {
              OFFSET -22.5879 0.773209 7.07136
              CHANNELS 3 Zrotation Xrotation Yrotation
              JOINT rThumb1
              {
                OFFSET -1.2192 -0.487915 3.41376
                CHANNELS 3 Zrotation Xrotation Yrotation
                JOINT rThumb2
                {
                  OFFSET -3.37035 -0.52449 3.41376
                  CHANNELS 3 Zrotation Xrotation Yrotation
                  End Site
                  {
                    OFFSET -1.78271 -1.18214 1.43049
                  }
                }
              }
              JOINT rIndex1
              {
                OFFSET -7.75947 0.938293 5.60832
                CHANNELS 3 Zrotation Xrotation Yrotation
                JOINT rIndex2
                {
                  OFFSET -2.54057 -0.884171 1.56538
                  CHANNELS 3 Zrotation Xrotation Yrotation
                  End Site
                  {
                    OFFSET -1.62519 -0.234802 1.16502
                  }
                }
              }
              JOINT rMid1
              {
                OFFSET -8.24714 1.18213 3.41376
                CHANNELS 3 Zrotation Xrotation Yrotation
                JOINT rMid2
                {
                  OFFSET -3.10165 -0.590103 1.0647
                  CHANNELS 3 Zrotation Xrotation Yrotation
                  End Site
                  {
                    OFFSET -2.48547 -0.328903 0.83742
                  }
                }
              }
              JOINT rRing1
              {
                OFFSET -8.82822 0.546677 1.51678
                CHANNELS 3 Zrotation Xrotation Yrotation
                JOINT rRing2
                {
                  OFFSET -2.60934 -0.819778 -0.0198488
                  CHANNELS 3 Zrotation Xrotation Yrotation
                  End Site
                  {
                    OFFSET -2.33842 -0.294052 0.168128
                  }
                }
              }
              JOINT rPinky1
              {
                OFFSET -8.27202 -0.0477905 -0.4584
                CHANNELS 3 Zrotation Xrotation Yrotation
                JOINT rPinky2
                {
                  OFFSET -1.82734 -0.647385 -0.700984
                  CHANNELS 3 Zrotation Xrotation Yrotation
                  End Site
                  {
                    OFFSET -1.69225 -0.51767 -0.607171
                  }
                }
              }
            }
          }
        }
      }
      JOINT lCollar
      {
        OFFSET 2.68224 19.2634 -4.8768
        CHANNELS 3 Zrotation Xrotation Yrotation
        JOINT lShldr
        {
          OFFSET 8.77824 -1.95073 1.46304
          CHANNELS 3 Zrotation Xrotation Yrotation
          JOINT lForeArm
          {
            OFFSET 28.1742 -1.7115 0.48768
            CHANNELS 3 Zrotation Xrotation Yrotation
            JOINT lHand
            {
              OFFSET 22.5879 0.773209 7.07136
              CHANNELS 3 Zrotation Xrotation Yrotation
              JOINT lThumb1
              {
                OFFSET 1.2192 -0.487915 3.41376
                CHANNELS 3 Zrotation Xrotation Yrotation
                JOINT lThumb2
                {
                  OFFSET 3.37035 -0.52449 3.41376
                  CHANNELS 3 Zrotation Xrotation Yrotation
                  End Site
                  {
                    OFFSET 1.78271 -1.18214 1.43049
                  }
                }
              }
              JOINT lIndex1
              {
                OFFSET 7.75947 0.938293 5.60832
                CHANNELS 3 Zrotation Xrotation Yrotation
                JOINT lIndex2
                {
                  OFFSET 2.54057 -0.884171 1.56538
                  CHANNELS 3 Zrotation Xrotation Yrotation
                  End Site
                  {
                    OFFSET 1.62519 -0.234802 1.16502
                  }
                }
              }
              JOINT lMid1
              {
                OFFSET 8.24714 1.18213 3.41376
                CHANNELS 3 Zrotation Xrotation Yrotation
                JOINT lMid2
                {
                  OFFSET 3.10165 -0.590103 1.0647
                  CHANNELS 3 Zrotation Xrotation Yrotation
                  End Site
                  {
                    OFFSET 2.48547 -0.328903 0.83742
                  }
                }
              }
              JOINT lRing1
              {
                OFFSET 8.82822 0.546677 1.51678
                CHANNELS 3 Zrotation Xrotation Yrotation
                JOINT lRing2
                {
                  OFFSET 2.60934 -0.819778 -0.0198488
                  CHANNELS 3 Zrotation Xrotation Yrotation
                  End Site
                  {
                    OFFSET 2.33842 -0.294052 0.168128
                  }
                }
              }
              JOINT lPinky1
              {
                OFFSET 8.27202 -0.0477905 -0.4584
                CHANNELS 3 Zrotation Xrotation Yrotation
                JOINT lPinky2
                {
                  OFFSET 1.82734 -0.647385 -0.700984
                  CHANNELS 3 Zrotation Xrotation Yrotation
                  End Site
                  {
                    OFFSET 1.69225 -0.51767 -0.607171
                  }
                }
              }
            }
          }
        }
      }
    }
  }
  JOINT rButtock
  {
    OFFSET -8.77824 4.35084 1.2192
    CHANNELS 3 Zrotation Xrotation Yrotation
    JOINT rThigh
    {
      OFFSET 0 -1.70687 -2.19456
      CHANNELS 3 Zrotation Xrotation Yrotation
      JOINT rShin
      {
        OFFSET 0 -36.8199 0.73152
        CHANNELS 3 Zrotation Xrotation Yrotation
        JOINT rFoot
        {
          OFFSET 0.73152 -45.1104 -5.12064
          CHANNELS 3 Zrotation Xrotation Yrotation
          End Site
          {
            OFFSET -1.1221 -3.69964 12.103
          }
        }
      }
    }
  }
  JOINT lButtock
  {
    OFFSET 8.77824 4.35084 1.2192
    CHANNELS 3 Zrotation Xrotation Yrotation
    JOINT lThigh
    {
      OFFSET 0 -1.70687 -2.19456
      CHANNELS 3 Zrotation Xrotation Yrotation
      JOINT lShin
      {
        OFFSET 0 -36.8199 0.73152
        CHANNELS 3 Zrotation Xrotation Yrotation
        JOINT lFoot
        {
          OFFSET -0.73152 -45.1104 -5.12064
          CHANNELS 3 Zrotation Xrotation Yrotation
          End Site
          {
            OFFSET 1.1221 -3.69964 12.103
          }
        }
      }
    }
  }
}
MOTION
Frames:	7
Frame Time:	0.00833333
64.8929 83.8008 111.949 0.0 0.0 0.0 -2.04814 -0.00112522 -0.0554689 -0.564322 0.00679381 -0.0976941 -8.7262e-15 7.95139e-16 3.23025e-16 -2.54227e-14 9.54166e-15 1.08866e-15 -0.0 0.0 0.0 -0.0 0.0 0.0 -4.27473e-15 1.06575e-16 2.98177e-16 -9.07384e-14 2.13072e-15 3.97569e-15 -1.55638e-12 5.46061e-13 6.99722e-14 -1.7995e-11 -7.28297e-14 6.96541e-13 -4.24162e-11 1.02893e-12 1.68251e-12 -7.32685e-11 1.77475e-12 2.90544e-12 -4.24115e-11 1.02772e-12 1.67933e-12 7.73091 5.47488 0.417314 -4.24176e-11 1.02782e-12 1.68887e-12 2.90554 0.965183 0.102902 -4.24144e-11 1.02851e-12 1.68251e-12 10.2786 0.731801 0.0259123 -4.24252e-11 1.03169e-12 1.69206e-12 2.22167 -0.733487 -0.20892 -4.47209e-15 1.06381e-16 0.0 -9.2592e-14 2.34193e-15 2.5842e-15 -1.58899e-12 -3.88226e-13 9.85972e-14 -1.79684e-11 8.67024e-13 6.83819e-13 -4.24237e-11 1.03706e-12 1.68251e-12 -7.3251e-11 1.79065e-12 2.91339e-12 -4.24294e-11 1.03607e-12 1.69524e-12 -7.73091 5.47488 -0.417314 -4.24245e-11 1.03696e-12 1.68251e-12 -2.90554 0.965183 -0.102902 -4.24278e-11 1.03676e-12 1.68331e-12 -10.2786 0.731801 -0.0259123 -4.24169e-11 1.04282e-12 1.67933e-12 -2.22167 -0.733487 0.20892 -2.03217e-16 0.0 -3.88251e-19 -1.0489 -1.92716 0.000316765 -0.00908138 -2.07858 -0.0748959 -0.505842 3.9982 0.139396 2.03217e-16 0.0 3.88251e-19 -2.0647 -7.46953 0.204661 -0.00450145 7.96079 -0.117529 0.539407 -0.498697 -0.0508249
59.649 82.6079 103.808 -167.849 -72.1183 168.362 -2.43914 3.57378 2.19358 0.129979 -0.755563 0.503083 -1.62261 3.05472 -1.37704 4.42882 -10.5957 -1.27109 -0.0 0.0 0.0 -0.0 0.0 0.0 1.5788e-15 -8.22721e-14 8.13503e-14 21.5535 -2.69763 0.0715601 -5.47412 -2.8013 8.1817 3.83945 -45.841 -0.675559 -4.13725e-11 6.3687e-11 1.10113e-10 -7.54624e-11 8.91949e-11 1.6861e-10 -4.13675e-11 6.36844e-11 1.10104e-10 7.73091 5.47488 0.417314 -4.13736e-11 6.36862e-11 1.10118e-10 2.90554 0.965183 0.102902 -4.1369e-11 6.36863e-11 1.10114e-10 10.2786 0.731801 0.0259123 -4.13788e-11 6.36888e-11 1.10123e-10 2.22167 -0.733487 -0.20892 1.43103e-15 -8.22734e-14 8.10509e-14 -20.8981 3.89642 -1.37596 3.49361 -1.46608 -5.58135 -0.000215383 0.32595 -0.0458066 -3.21958e-10 7.06244e-11 -2.80497e-10 -5.57263e-10 1.21992e-10 -4.84387e-10 -3.21964e-10 7.06225e-11 -2.80485e-10 -7.73091 5.47488 -0.417314 -3.2196e-10 7.06226e-11 -2.80496e-10 -2.90554 0.965183 -0.102902 -3.21962e-10 7.06222e-11 -2.80495e-10 -10.2786 0.731801 -0.0259123 -3.21951e-10 7.06283e-11 -2.805e-10 -2.22167 -0.733487 0.20892 -2.03217e-16 0.0 -3.88251e-19 -1.15268 -8.01491 1.7433 0.035527 8.71939 0.125776 -0.748383 0.0543284 -2.71002 2.03217e-16 0.0 3.88251e-19 0.106076 -8.27654 2.31547 -0.0500823 14.203 -0.281909 0.629962 -5.5361 1.34206
59.5825 82.6236 103.71 -168.167 -71.795 168.65 -3.14982 7.34295 4.61148 0.870499 -1.56173 1.14166 -3.1697 6.28313 -2.84654 8.55801 -21.7737 -2.77261 -0.0 0.0 0.0 -0.0 0.0 0.0 7.55134e-15 -1.68677e-13 1.70079e-13 44.357 -5.58136 0.149609 -10.392 -5.56525 16.8812 -158.497 -85.5786 -167.356 -3.57311e-11 1.38109e-10 2.31075e-10 -7.13064e-11 1.94789e-10 3.53699e-10 -3.57256e-11 1.38105e-10 2.31061e-10 7.73091 5.47488 0.417314 -3.57319e-11 1.38109e-10 2.31078e-10 2.90554 0.965183 0.102902 -3.57258e-11 1.38108e-10 2.31077e-10 10.2786 0.731801 0.0259123 -3.57345e-11 1.3811e-10 2.31085e-10 2.22167 -0.733487 -0.20892 7.45741e-15 -1.68679e-13 1.69778e-13 -42.7804 8.04964 -2.85552 6.88209 -2.97218 -11.5 0.00012334 0.668636 -0.0939702 -6.18679e-10 1.34398e-10 -5.9247e-10 -1.07107e-09 2.32058e-10 -1.0232e-09 -6.18685e-10 1.34395e-10 -5.92459e-10 -7.73091 5.47488 -0.417314 -6.18681e-10 1.34394e-10 -5.92466e-10 -2.90554 0.965183 -0.102902 -6.18683e-10 1.34393e-10 -5.92465e-10 -10.2786 0.731801 -0.0259123 -6.18672e-10 1.344e-10 -5.92471e-10 -2.22167 -0.733487 0.20892 -2.03217e-16 0.0 -3.88251e-19 -0.840249 -14.4097 3.6646 -0.0039125 20.1293 0.356288 -1.42718 -4.10938 -5.70724 2.03217e-16 0.0 3.88251e-19 2.4706 -9.13082 4.55709 -0.0561493 20.8185 -0.469501 0.993617 -10.8465 2.83909
59.5036 82.6783 103.687 -169.551 -71.5385 170.108 -4.07346 10.6577 6.79666 1.56657 -2.27935 1.70586 -4.42292 9.14286 -4.17842 11.6671 -31.7187 -4.4076 -0.0 0.0 0.0 -0.0 0.0 0.0 1.32858e-14 -2.4703e-13 2.43455e-13 64.6809 -8.09284 0.2166 -14.0858 -7.71986 24.7548 -165.736 -42.455 -178.086 -3.92851e-11 1.89003e-10 3.26974e-10 -7.98503e-11 2.64035e-10 5.00018e-10 -3.92794e-11 1.88998e-10 3.26954e-10 7.73091 5.47488 0.417314 -3.92857e-11 1.89003e-10 3.26975e-10 2.90554 0.965183 0.102902 -3.92784e-11 1.89002e-10 3.26976e-10 10.2786 0.731801 0.0259123 -3.92861e-11 1.89003e-10 3.26983e-10 2.22167 -0.733487 -0.20892 1.32373e-14 -2.47033e-13 2.43153e-13 -62.1233 11.662 -4.2053 9.63554 -4.23158 -16.7857 0.000917578 0.977847 -0.137438 -8.81027e-10 2.09799e-10 -8.44857e-10 -1.52529e-09 3.62394e-10 -1.45899e-09 -8.81034e-10 2.09796e-10 -8.44847e-10 -7.73091 5.47488 -0.417314 -8.8103e-10 2.09794e-10 -8.44853e-10 -2.90554 0.965183 -0.102902 -8.81032e-10 2.09793e-10 -8.44851e-10 -10.2786 0.731801 -0.0259123 -8.8102e-10 2.09799e-10 -8.44857e-10 -2.22167 -0.733487 0.20892 -2.03217e-16 0.0 -3.88251e-19 -0.187596 -20.1154 5.51556 -0.129088 30.314 0.605445 -2.41307 -7.74854 -8.48623 2.03217e-16 0.0 3.88251e-19 4.62791 -9.84677 6.56531 -0.0210876 26.6865 -0.65708 1.56902 -15.5743 4.26595
59.4311 82.7316 103.599 -169.971 -71.2085 170.663 -4.91418 12.9013 8.29766 2.11718 -2.77657 2.0829 -5.25859 11.1013 -5.12077 13.4357 -38.6459 -5.82032 -0.0 0.0 0.0 -0.0 0.0 0.0 1.84253e-14 -3.05252e-13 2.78448e-13 78.7903 -9.67376 0.253904 -16.3271 -8.99472 30.3663 -163.808 -12.3932 -178.23 -6.58279e-11 1.81077e-10 3.60214e-10 -1.20144e-10 2.42409e-10 5.49409e-10 -6.5822e-11 1.81071e-10 3.60191e-10 7.73091 5.47488 0.417314 -6.58282e-11 1.81076e-10 3.60214e-10 2.90554 0.965183 0.102902 -6.58203e-11 1.81076e-10 3.60216e-10 10.2786 0.731801 0.0259123 -6.58275e-11 1.81077e-10 3.60223e-10 2.22167 -0.733487 -0.20892 1.84008e-14 -3.05255e-13 2.78149e-13 -75.5368 13.9491 -5.1526 11.3968 -5.03452 -20.4485 0.00177636 1.20337 -0.169148 -1.05745e-09 3.14271e-10 -9.48282e-10 -1.83054e-09 5.43404e-10 -1.63721e-09 -1.05745e-09 3.14267e-10 -9.48273e-10 -7.73091 5.47488 -0.417314 -1.05745e-09 3.14264e-10 -9.48279e-10 -2.90554 0.965183 -0.102902 -1.05745e-09 3.14264e-10 -9.48276e-10 -10.2786 0.731801 -0.0259123 -1.05744e-09 3.1427e-10 -9.48282e-10 -2.22167 -0.733487 0.20892 -2.03217e-16 0.0 -3.88251e-19 0.477068 -24.1671 6.9327 -0.28339 37.4369 0.825725 -3.34476 -10.1615 -10.6253 2.03217e-16 0.0 3.88251e-19 6.13433 -10.2517 7.96778 0.0277839 30.6869 -0.80471 2.14413 -18.8785 5.39107
59.3741 82.7635 103.476 -170.078 -70.8213 170.905 -5.36732 13.7003 8.76301 2.46749 -2.9619 2.1949 -5.662 11.8103 -5.48524 14.0579 -41.4181 -6.41922 -0.0 0.0 0.0 -0.0 0.0 0.0 2.51845e-14 -3.49332e-13 2.45502e-13 84.1944 -9.9433 0.249943 -17.188 -9.48161 32.7123 -163.056 -0.780726 -178.127 -1.30497e-10 8.83611e-11 2.59009e-10 -2.11176e-10 9.72709e-11 3.8992e-10 -1.30491e-10 8.83544e-11 2.58989e-10 7.73091 5.47488 0.417314 -1.30497e-10 8.83573e-11 2.59009e-10 2.90554 0.965183 0.102902 -1.30489e-10 8.83601e-11 2.59012e-10 10.2786 0.731801 0.0259123 -1.30497e-10 8.83621e-11 2.5902e-10 2.22167 -0.733487 -0.20892 2.51559e-14 -3.49334e-13 2.45216e-13 -80.865 14.359 -5.47644 12.0224 -5.30925 -21.8175 0.00227635 1.32052 -0.185622 -1.09049e-09 4.32819e-10 -7.81954e-10 -1.88709e-09 7.4934e-10 -1.34904e-09 -1.09049e-09 4.32817e-10 -7.81946e-10 -7.73091 5.47488 -0.417314 -1.09049e-09 4.32812e-10 -7.81957e-10 -2.90554 0.965183 -0.102902 -1.09049e-09 4.32814e-10 -7.81949e-10 -10.2786 0.731801 -0.0259123 -1.09048e-09 4.32818e-10 -7.81955e-10 -2.22167 -0.733487 0.20892 -2.03217e-16 0.0 -3.88251e-19 0.755862 -25.9532 7.57986 -0.364629 40.2981 0.933167 -3.83312 -10.9119 -11.8215 2.03217e-16 0.0 3.88251e-19 6.66194 -10.2368 8.49543 0.0488182 32.0741 -0.868978 2.46947 -20.2181 6.01348
59.315 82.7981 103.361 -170.364 -70.4376 171.288 -5.48342 13.4786 8.47003 2.6706 -2.92481 2.11746 -5.78939 11.631 -5.42796 14.0953 -41.2407 -6.25432 -0.0 0.0 0.0 -0.0 0.0 0.0 3.2984e-14 -3.82642e-13 1.64706e-13 83.38 -9.27655 0.216297 -17.2054 -9.53686 32.7014 -163.135 -2.34091 -178.105 -2.22115e-10 -6.48024e-11 6.39975e-11 -3.3815e-10 -1.36267e-10 8.47166e-11 -2.2211e-10 -6.48092e-11 6.39824e-11 7.73091 5.47488 0.417314 -2.22115e-10 -6.48102e-11 6.39991e-11 2.90554 0.965183 0.102902 -2.22108e-10 -6.48027e-11 6.40015e-11 10.2786 0.731801 0.0259123 -2.22117e-10 -6.47991e-11 6.40099e-11 2.22167 -0.733487 -0.20892 3.29308e-14 -3.82641e-13 1.64438e-13 -80.4531 13.4345 -5.34394 11.8908 -5.23698 -21.5417 0.00239833 1.35983 -0.191149 -1.02221e-09 5.62691e-10 -4.25858e-10 -1.76792e-09 9.75272e-10 -7.32767e-10 -1.02222e-09 5.6269e-10 -4.25852e-10 -7.73091 5.47488 -0.417314 -1.02221e-09 5.62684e-10 -4.25871e-10 -2.90554 0.965183 -0.102902 -1.02222e-09 5.62688e-10 -4.25856e-10 -10.2786 0.731801 -0.0259123 -1.02221e-09 5.62691e-10 -4.25863e-10 -2.22167 -0.733487 0.20892 -2.03217e-16 0.0 -3.88251e-19 0.644882 -26.1375 7.61421 -0.356823 40.1145 0.932107 -3.90508 -10.4986 -12.3172 2.03217e-16 0.0 3.88251e-19 6.48122 -9.92636 8.39735 0.037596 31.595 -0.865662 2.54539 -20.1627 6.24544
